<svg xmlns="http://www.w3.org/2000/svg" width="1280" height="1280">
  <style>
    text {
      font-family: "Hiragino Sans ";
      font-size: 40px;
      font-weight: bold;
      text-anchor: end;
    }
  </style>
  <circle cx="640" cy="640" r="3" style="fill: black;"/>

  <text x="{{ start_x }}" y="{{ start_y }}" transform="rotate(0,640,640)">䷀</text>
  <text x="{{ start_x }}" y="{{ start_y }}" transform="rotate(5.625,640,640)">䷀</text>
  <text x="{{ start_x }}" y="{{ start_y }}" transform="rotate(11.25,640,640)">䷀</text>
  <text x="{{ start_x }}" y="{{ start_y }}" transform="rotate(16.875,640,640)">䷀</text>
  <text x="{{ start_x }}" y="{{ start_y }}" transform="rotate(22.5,640,640)"></text>
  <text x="{{ start_x }}" y="{{ start_y }}" transform="rotate(28.125,640,640)"></text>
  <text x="{{ start_x }}" y="{{ start_y }}" transform="rotate(33.75,640,640)"></text>
  <text x="{{ start_x }}" y="{{ start_y }}" transform="rotate(39.375,640,640)"></text>
  <text x="{{ start_x }}" y="{{ start_y }}" transform="rotate(45,640,640)"></text>
  <text x="{{ start_x }}" y="{{ start_y }}" transform="rotate(50.625,640,640)"></text>
  <text x="{{ start_x }}" y="{{ start_y }}" transform="rotate(56.25,640,640)"></text>
  <text x="{{ start_x }}" y="{{ start_y }}" transform="rotate(61.875,640,640)"></text>
  <text x="{{ start_x }}" y="{{ start_y }}" transform="rotate(67.5,640,640)"></text>
  <text x="{{ start_x }}" y="{{ start_y }}" transform="rotate(73.125,640,640)"></text>
  <text x="{{ start_x }}" y="{{ start_y }}" transform="rotate(78.75,640,640)"></text>
  <text x="{{ start_x }}" y="{{ start_y }}" transform="rotate(84.375,640,640)"></text>
  <text x="{{ start_x }}" y="{{ start_y }}" transform="rotate(90,640,640)"></text>
  <text x="{{ start_x }}" y="{{ start_y }}" transform="rotate(95.625,640,640)"></text>
  <text x="{{ start_x }}" y="{{ start_y }}" transform="rotate(101.25,640,640)"></text>
  <text x="{{ start_x }}" y="{{ start_y }}" transform="rotate(106.875,640,640)"></text>
  <text x="{{ start_x }}" y="{{ start_y }}" transform="rotate(112.5,640,640)"></text>
  <text x="{{ start_x }}" y="{{ start_y }}" transform="rotate(118.125,640,640)"></text>
  <text x="{{ start_x }}" y="{{ start_y }}" transform="rotate(123.75,640,640)"></text>
  <text x="{{ start_x }}" y="{{ start_y }}" transform="rotate(129.375,640,640)"></text>
  <text x="{{ start_x }}" y="{{ start_y }}" transform="rotate(135,640,640)"></text>
  <text x="{{ start_x }}" y="{{ start_y }}" transform="rotate(140.625,640,640)"></text>
  <text x="{{ start_x }}" y="{{ start_y }}" transform="rotate(146.25,640,640)"></text>
  <text x="{{ start_x }}" y="{{ start_y }}" transform="rotate(151.875,640,640)"></text>
  <text x="{{ start_x }}" y="{{ start_y }}" transform="rotate(157.5,640,640)"></text>
  <text x="{{ start_x }}" y="{{ start_y }}" transform="rotate(163.125,640,640)"></text>
  <text x="{{ start_x }}" y="{{ start_y }}" transform="rotate(168.75,640,640)"></text>
  <text x="{{ start_x }}" y="{{ start_y }}" transform="rotate(174.375,640,640)"></text>
  <text x="{{ start_x }}" y="{{ start_y }}" transform="rotate(180,640,640)"></text>
  <text x="{{ start_x }}" y="{{ start_y }}" transform="rotate(185.625,640,640)"></text>
  <text x="{{ start_x }}" y="{{ start_y }}" transform="rotate(191.25,640,640)"></text>
  <text x="{{ start_x }}" y="{{ start_y }}" transform="rotate(196.875,640,640)"></text>
  <text x="{{ start_x }}" y="{{ start_y }}" transform="rotate(202.5,640,640)"></text>
  <text x="{{ start_x }}" y="{{ start_y }}" transform="rotate(208.125,640,640)"></text>
  <text x="{{ start_x }}" y="{{ start_y }}" transform="rotate(213.75,640,640)"></text>
  <text x="{{ start_x }}" y="{{ start_y }}" transform="rotate(219.375,640,640)"></text>
  <text x="{{ start_x }}" y="{{ start_y }}" transform="rotate(225,640,640)"></text>
  <text x="{{ start_x }}" y="{{ start_y }}" transform="rotate(230.625,640,640)"></text>
  <text x="{{ start_x }}" y="{{ start_y }}" transform="rotate(236.25,640,640)"></text>
  <text x="{{ start_x }}" y="{{ start_y }}" transform="rotate(241.875,640,640)"></text>
  <text x="{{ start_x }}" y="{{ start_y }}" transform="rotate(247.5,640,640)"></text>
  <text x="{{ start_x }}" y="{{ start_y }}" transform="rotate(253.125,640,640)"></text>
  <text x="{{ start_x }}" y="{{ start_y }}" transform="rotate(258.75,640,640)"></text>
  <text x="{{ start_x }}" y="{{ start_y }}" transform="rotate(264.375,640,640)"></text>
  <text x="{{ start_x }}" y="{{ start_y }}" transform="rotate(270,640,640)"></text>
  <text x="{{ start_x }}" y="{{ start_y }}" transform="rotate(275.625,640,640)"></text>
  <text x="{{ start_x }}" y="{{ start_y }}" transform="rotate(281.25,640,640)"></text>
  <text x="{{ start_x }}" y="{{ start_y }}" transform="rotate(286.875,640,640)"></text>
  <text x="{{ start_x }}" y="{{ start_y }}" transform="rotate(292.5,640,640)"></text>
  <text x="{{ start_x }}" y="{{ start_y }}" transform="rotate(298.125,640,640)"></text>
  <text x="{{ start_x }}" y="{{ start_y }}" transform="rotate(303.75,640,640)"></text>
  <text x="{{ start_x }}" y="{{ start_y }}" transform="rotate(309.375,640,640)"></text>
  <text x="{{ start_x }}" y="{{ start_y }}" transform="rotate(315,640,640)"></text>
  <text x="{{ start_x }}" y="{{ start_y }}" transform="rotate(320.625,640,640)"></text>
  <text x="{{ start_x }}" y="{{ start_y }}" transform="rotate(326.25,640,640)"></text>
  <text x="{{ start_x }}" y="{{ start_y }}" transform="rotate(331.875,640,640)"></text>
  <text x="{{ start_x }}" y="{{ start_y }}" transform="rotate(337.5,640,640)"></text>
  <text x="{{ start_x }}" y="{{ start_y }}" transform="rotate(343.125,640,640)"></text>
  <text x="{{ start_x }}" y="{{ start_y }}" transform="rotate(348.75,640,640)"></text>
  <text x="{{ start_x }}" y="{{ start_y }}" transform="rotate(354.375,640,640)"></text>
  <text x="{{ start_x }}" y="{{ start_y }}" transform="rotate(360,640,640)"></text>

</svg>